<svg id="en560leV9JC1" xmlns="http://www.w3.org/2000/svg" xmlns:xlink="http://www.w3.org/1999/xlink" viewBox="0 0 70 70" shape-rendering="geometricPrecision" text-rendering="geometricPrecision">


    <path id="en560leV9JC2" d="M416.875,114.441406L405.570312,80.554688C401.265625,67.648438,389.230469,58.976562,375.628906,58.976562L280.617188,58.976562L280.617188,28.042969C280.617188,12.582031,268.046875,0,252.589844,0L165.582031,0C150.128906,0,137.554688,12.582031,137.554688,28.042969L137.554688,58.976562L42.546875,58.976562C28.941406,58.976562,16.90625,67.648438,12.601562,80.554688L1.296875,114.441406C-1.277344,122.15625,0.027344,130.699219,4.78125,137.296875C9.535156,143.894531,17.226562,147.835938,25.359375,147.835938L37.175781,147.835938L63.183594,469.441406C65.117188,493.304688,85.367188,512,109.292969,512L314.15625,512C338.078125,512,358.332031,493.304688,360.261719,469.4375L386.269531,147.835938L392.8125,147.835938C400.945312,147.835938,408.636719,143.894531,413.390625,137.300781C418.144531,130.703125,419.449219,122.15625,416.875,114.441406ZM167.554688,30L250.617188,30L250.617188,58.976562L167.554688,58.976562ZM330.359375,467.019531C329.679688,475.421875,322.5625,482,314.15625,482L109.292969,482C100.886719,482,93.769531,475.421875,93.089844,467.019531L67.273438,147.835938L356.171875,147.835938ZM31.792969,117.835938L41.0625,90.046875C41.273438,89.40625,41.871094,88.976562,42.546875,88.976562L375.628906,88.976562C376.304688,88.976562,376.898438,89.40625,377.113281,90.046875L386.382812,117.835938ZM31.792969,117.835938" transform="matrix(0.116588 0 0 0.112139 10.623091 6.292416)" fill="rgb(0,0,0)" stroke="none" stroke-width="1"/>
    <path id="en560leV9JC3" d="M282.515625,465.957031C282.78125,465.972656,283.042969,465.976562,283.308594,465.976562C291.234375,465.976562,297.859375,459.765625,298.273438,451.757812L312.359375,181.359375C312.789062,173.085938,306.429688,166.027344,298.160156,165.597656C289.867188,165.15625,282.832031,171.523438,282.398438,179.796875L268.316406,450.195312C267.886719,458.46875,274.242188,465.527344,282.515625,465.957031ZM282.515625,465.957031" transform="matrix(0.11054 0 0 0.116426 13.242589 4.886088)" fill="rgb(0,0,0)" stroke="none" stroke-width="1"/>
    <path id="en560leV9JC4" d="M120.566406,451.792969C121.003906,459.789062,127.621094,465.976562,135.53125,465.976562C135.804688,465.976562,136.085938,465.96875,136.363281,465.953125C144.632812,465.503906,150.972656,458.433594,150.523438,450.160156L135.769531,179.761719C135.320312,171.488281,128.25,165.148438,119.976562,165.601562C111.707031,166.050781,105.367188,173.121094,105.816406,181.394531ZM120.566406,451.792969" transform="matrix(0.11054 0 0 0.116426 10.831504 4.886088)" fill="rgb(0,0,0)" stroke="none" stroke-width="1"/>
    <path id="en560leV9JC5" d="M209.253906,465.976562C217.539062,465.976562,224.253906,459.261719,224.253906,450.976562L224.253906,180.578125C224.253906,172.292969,217.539062,165.578125,209.253906,165.578125C200.96875,165.578125,194.253906,172.292969,194.253906,180.578125L194.253906,450.976562C194.253906,459.261719,200.96875,465.976562,209.253906,465.976562ZM209.253906,465.976562" transform="matrix(0.11054 0 0 0.116426 11.783138 4.886088)" fill="rgb(0,0,0)" stroke="none" stroke-width="1"/></svg>

